<svg xmlns="http://www.w3.org/2000/svg" viewBox="257 257 512 512"><defs><style>.cls-1{fill:#fff;}.cls-2{stroke:#000;stroke-miterlimit:10;}</style></defs><g id="Layer_2" data-name="Layer 2"><g id="Layer_1-2" data-name="Layer 1"><rect class="cls-1" width="1026" height="1026"/><polygon class="cls-2" points="747.77 393.61 747.77 744 278.38 744 278.38 586.12 313.35 571.77 313.35 709.03 712.79 709.03 712.79 407.95 747.77 393.61"/><polygon class="cls-2" points="748.01 275.13 748.01 394.13 713.04 408.46 713.04 310.1 313.6 310.1 313.6 572.29 278.63 586.63 278.63 275.13 748.01 275.13"/><polygon class="cls-2" points="651.46 370.72 619.46 432.11 444.93 432.11 444.93 518.43 374.21 547.43 374.21 370.72 651.46 370.72"/><polygon class="cls-2" points="537.82 587.8 506.23 648.41 373.97 648.41 373.97 546.91 444.69 517.91 444.69 587.8 537.82 587.8"/><polygon class="cls-2" points="606.9 605.13 652.18 518.25 652.18 648.41 584.34 648.41 606.9 605.13"/></g></g></svg>
